<?xml version="1.0" encoding="utf-8"?>
<!-- Generator: Adobe Illustrator 19.2.1, SVG Export Plug-In . SVG Version: 6.00 Build 0)  -->
<svg version="1.1" id="Layer_1" xmlns="http://www.w3.org/2000/svg" xmlns:xlink="http://www.w3.org/1999/xlink" x="0px" y="0px"
	 viewBox="0 0 439 189" style="enable-background:new 0 0 439 189;" xml:space="preserve">
<style type="text/css">
	.st0{fill:#FFFFFF;}
</style>
<path class="st0" d="M138.4,143.6c-9.8,3.6-18.3,6.8-26.9,9.9c-20.2,7.2-40.9,11.8-62.4,12.5c-12.6,0.4-18.5-4.1-22.3-16.3
	c-4.6-14.8-3.2-29.7,0.6-44.4C33,83.2,43,63.1,57.5,45.5c20.7-25.2,47.8-31.1,78.4-24c9.1,2.1,18,4.8,26.7,8.2
	c7.7,3,14.7,2.8,22.1-0.7c23.4-11,48.2-12.2,73.3-9.9c5.3,0.5,10.6,2.7,15.6,5c6.2,2.8,8.6,8.7,9.7,14.9c0.8,5,3.1,5.5,7.5,4.5
	c22.9-5.1,45.7-10.7,68.8-14.6c16.5-2.8,33.5-3,50.2-4.4c4-0.3,5.2,1.4,5.3,5.2c0.2,14.5,0.3,14.5-14,16c-14.1,1.5-28.2,3.1-42.3,4
	c-4.6,0.3-6.7,2.1-8.5,5.9c-12.4,25.6-24.9,51.2-37.4,76.7c-3.5,7-7.4,13.8-11,20.8c-1.8,3.5-4.4,5-8.4,4.8
	c-5.5-0.3-11-0.1-16.5-0.1c-8.4-0.1-16-3.1-22.9-7.7c-14-9.3-27.7-19-41.7-28.4c-4.8-3.2-10-6.1-15.2-8.6c-6-2.9-8.5-1.8-11.7,4
	c-7.5,13.6-15.3,27.1-26.9,37.6c-4.5,4.1-10.4,7.1-16.1,9.4c-4.7,1.9-6,0.2-5.6-4.8C137.3,154.5,137.8,149.6,138.4,143.6z
	 M104.2,102.7c0-0.5,0-1.1,0-1.6c17.2-1.1,34.5-2.4,51.7-3c4.6-0.2,7.6-1.4,10.1-4.9c7.8-11.2,13.2-23.4,16.2-36.7
	c0.7-3.1,0.9-6.3,0.8-9.4c-0.1-2.4-1-4.4-4.4-4c-14.3,1.7-28.3,0.3-41.8-4.5s-26-3-36.5,6c-11.6,9.9-23.1,20.2-32.8,31.9
	c-10.3,12.3-13.2,27.8-10.8,43.8c1.8,12,7.4,16.6,19.7,16.7c17.3,0.2,33.6-4.2,48.7-12.4c2.7-1.5,4.7-4.3,7-6.5
	c-2.3-2-4.4-4.6-7-5.9C118.2,108.7,111.2,105.8,104.2,102.7z M327.7,51c-2.4-0.4-4.2-1.2-5.8-1c-12.8,1.7-25.7,3.5-38.5,5.5
	c-1.1,0.2-2.5,1.6-2.9,2.8c-4.2,12.4-12.7,21.3-23.2,28.6c-7.1,4.9-14.5,9.4-21.7,14.2c-4.6,3.1-4.7,4.5-0.9,8.6
	c1.1,1.2,2.3,2.5,3.6,3.4c10.7,7.7,21.2,15.6,32.2,22.8c11.4,7.4,13.2,7.3,19.4-4.6c10.9-20.9,21-42.3,31.2-63.5
	C323.5,62.6,325.3,57,327.7,51z M242.4,59.9c0-0.2-0.1-0.4-0.1-0.6c5.9-2.1,11.8-4.2,17.6-6.4c4.1-1.6,5.8-5.8,5.2-11.7
	c-0.5-4.4-2.9-6.3-7.4-7.3c-16.4-3.6-32.4-1.4-48.2,3.1c-2.7,0.8-6.2,3.1-6.9,5.4c-4,13-7.6,26.1-10.4,39.3c-1.3,5.9,2,9.2,8.2,9.2
	c23.6,0.2,43.6-7.8,58.8-26.3c1.4-1.7,2.2-3.8,4-7C255.1,58.5,248.8,59.2,242.4,59.9z"/>
</svg>
