<svg viewBox="0 0 405 150" xmlns="http://www.w3.org/2000/svg">
    <g fill="none" fill-rule="evenodd">
        <path fill="#00A7E1" d="M115.86 149h-5.11v-31.5h17.78v4.35h-12.67v9.85h11.87v4.37h-11.87z"></path>
        <path d="M163 133.2c0 5.133-1.283 9.133-3.85 12-2.567 2.867-6.197 4.29-10.89 4.27-4.747 0-8.413-1.41-11-4.23-2.587-2.82-3.86-6.82-3.82-12 0-5.2 1.283-9.2 3.85-12 2.567-2.8 6.233-4.193 11-4.18 4.667 0 8.287 1.417 10.86 4.25 2.573 2.833 3.857 6.797 3.85 11.89zm-24.05 0c0 3.88.79 6.82 2.35 8.83s3.89 3 7 3 5.37-1 6.93-3c1.56-2 2.34-4.93 2.34-8.86 0-3.93-.78-6.79-2.32-8.79-1.54-2-3.85-3-6.91-3s-5.42 1-7 3-2.43 4.96-2.43 8.82h.04z"
              fill="#00A7E1" fill-rule="nonzero"></path>
        <path d="M195.13 117.5v20.38a12.08 12.08 0 0 1-1.5 6.11 10 10 0 0 1-4.33 4 15.08 15.08 0 0 1-6.78 1.41c-3.907 0-6.943-1.033-9.11-3.1a11.25 11.25 0 0 1-3.26-8.54V117.5h5.17v19.93c0 2.6.61 4.52 1.81 5.75 1.2 1.23 3.06 1.85 5.56 1.85 4.86 0 7.29-2.55 7.29-7.65V117.5h5.15zM230.58 149h-6.32l-15.49-25.1h-.17l.11 1.4c.2 2.667.3 5.107.3 7.32V149h-4.68v-31.5h6.25l15.45 25h.13c0-.33-.09-1.53-.17-3.61-.08-2.08-.13-3.69-.13-4.86V117.5h4.72V149z"
              fill="#00A7E1"></path>
        <path d="M265.88 133c0 5.2-1.443 9.173-4.33 11.92s-7.043 4.107-12.47 4.08h-8.82v-31.5H250c5.02 0 8.92 1.35 11.7 4.05 2.78 2.7 4.173 6.517 4.18 11.45zm-5.43.17c0-7.54-3.527-11.31-10.58-11.31h-4.46v22.86h3.67c7.58-.033 11.37-3.9 11.37-11.6v.05zM292.9 149l-3.15-8.75h-12l-3.12 8.75h-5.43l11.8-31.63h5.61L298.37 149h-5.47zm-4.5-13.19l-3-8.57c-.21-.58-.51-1.48-.89-2.72-.38-1.24-.64-2.14-.79-2.71a46.74 46.74 0 0 1-1.7 5.79l-2.84 8.21h9.22z"
              fill="#00A7E1" fill-rule="nonzero"></path>
        <path fill="#00A7E1" d="M314.12 149H309v-27.09h-9.26v-4.41h23.68v4.41h-9.27zM328.92 149v-31.5h5.15V149z"></path>
        <path d="M371.28 133.2c0 5.133-1.28 9.133-3.84 12-2.56 2.867-6.193 4.29-10.9 4.27-4.747 0-8.413-1.41-11-4.23-2.587-2.82-3.863-6.82-3.83-12 0-5.2 1.283-9.2 3.85-12 2.567-2.8 6.233-4.193 11-4.18 4.667 0 8.287 1.417 10.86 4.25 2.573 2.833 3.86 6.797 3.86 11.89zm-24 0c0 3.88.79 6.82 2.35 8.83s3.89 3 7 3 5.37-1 6.93-3c1.56-2 2.34-4.93 2.34-8.86 0-3.93-.77-6.79-2.32-8.79-1.55-2-3.84-3-6.9-3-3.06 0-5.42 1-7 3s-2.45 4.96-2.45 8.82h.05z"
              fill="#00A7E1" fill-rule="nonzero"></path>
        <path d="M405 149h-6.31l-15.5-25.1H383l.11 1.4c.2 2.667.3 5.107.3 7.32V149h-4.68v-31.5H385l15.45 25h.13c0-.33-.08-1.53-.17-3.61-.09-2.08-.13-3.69-.13-4.86V117.5H405V149z"
              fill="#00A7E1"></path>
        <path d="M204.42 90L242.2 9a2.23 2.23 0 0 1 4 0L284 90h8.47L253.2 5.72a9.9 9.9 0 0 0-17.95 0L195.94 90h8.48zM120.67 82.35a2.32 2.32 0 0 1-2.32-2.32V0h-7.66v80c0 5.523 4.477 10 10 10h60.67v-7.65h-60.69zM81.2 90h9.71L52.8 41.22 85 0h-9.72L11.4 81.77a2.1 2.1 0 0 1-3.75-1.29V0H0v80.48a9.64 9.64 0 0 0 6.58 9.22 10.13 10.13 0 0 0 3.23.54 9.63 9.63 0 0 0 7.62-3.76l30.51-39L81.2 90z"
              fill="#41007F"></path>
        <path fill="#00A7E1" d="M315 0h90v90h-90z"></path>
        <path fill="#FFF" d="M398.25 40.75h-34v-34h-8.5v34h-34v8.5h34v34h8.5v-34h34z"></path>
    </g>
</svg>
